<svg width="16px" height="16px" viewBox="-1 0 16 16" xmlns="http://www.w3.org/2000/svg"><path d="M10 14v1.25c0 0.414 -0.336 0.75 -0.75 0.75H0.75c-0.414 0 -0.75 -0.336 -0.75 -0.75V3.75c0 -0.414 0.336 -0.75 0.75 -0.75h2.25v9.25c0 0.965 0.785 1.75 1.75 1.75h5.25zm0 -10.75V0H4.75c-0.414 0 -0.75 0.336 -0.75 0.75v11.5c0 0.414 0.336 0.75 0.75 0.75h8.5c0.414 0 0.75 -0.336 0.75 -0.75V4H10.75c-0.412 0 -0.75 -0.338 -0.75 -0.75zm3.78 -0.97L11.72 0.22A0.75 0.75 0 0 0 11.189 0H11v3h3v-0.189a0.75 0.75 0 0 0 -0.22 -0.53z"/></svg>