<svg width="100.1990051269531" height="70.70098876953125" viewBox="0 0 284.199 270.701" class="css-1j8o68f"><g fill="inherit"><path xmlns="http://www.w3.org/2000/svg" d="M197.236 168.21h-56.26a5.262 5.262 0 0 1-5.207-4.36c-1.996-11.394-4.475-19.631-6.476-21.497-3.396-3.151-11.274-2.319-17.607-1.665-2.115.218-4.113.438-5.908.512-15.303.805-16.178-9.086-17.069-18.641a58.386 58.386 0 0 0-1.752-11.128 13.536 13.536 0 0 0-6.663-8.356c-2.535-1.675-5.41-3.575-5.161-8.343.115-2.289 1.954-4.329 4.288-6.914 3.647-4.041 8.636-9.553 8.666-18.32.015-2.26-.218-5.263-.452-8.184-.174-2.349-.351-4.567-.409-6.476a49.692 49.692 0 0 1 15.362-37.296c13.225-12.965 32.759-19.78 53.574-18.697 36.025 1.853 59.613 22.185 64.703 55.806 3.076 20.318-2.682 38.171-19.264 59.669-3.689 4.785-5.308 13.213-4.962 18.697.626 9.901 3.82 22.065 5.674 28.442a5.278 5.278 0 0 1-5.077 6.75Zm-76.717-31.797c4.432 0 8.52.714 11.259 3.267 3.426 3.194 6.022 14.555 7.586 23.538a1.632 1.632 0 0 0 1.619 1.342h56.253a1.632 1.632 0 0 0 1.573-2.086c-1.895-6.52-5.162-18.978-5.819-29.212-.394-6.3 1.43-15.604 5.719-21.148 16.117-20.916 21.497-37.396 18.54-56.896-4.791-31.768-27.134-50.98-61.28-52.745-19.805-1.007-38.331 5.41-50.829 17.662A45.474 45.474 0 0 0 90.862 54.72c.06 1.821.219 3.999.41 6.3.234 2.992.466 6.068.466 8.474-.028 10.152-5.792 16.538-9.6 20.755-1.619 1.793-3.295 3.66-3.353 4.652-.128 2.582.918 3.382 3.533 5.106a17.196 17.196 0 0 1 8.152 10.368 62.277 62.277 0 0 1 1.882 11.813c.905 9.929 1.445 15.926 13.26 15.329 1.693-.074 3.634-.275 5.687-.495a89.26 89.26 0 0 1 9.211-.624Z" class="svg-elem-1"></path><path xmlns="http://www.w3.org/2000/svg" d="M215.115 71.696h-.128c-12.688-.888-28.104-3.44-44.414-6.14-14.046-2.334-28.588-4.727-42.646-6.3a218.199 218.199 0 0 0-34.493-1.545 1.826 1.826 0 0 1-.192-3.648 220.823 220.823 0 0 1 35.079 1.559c14.16 1.573 28.746 3.999 42.853 6.332 16.236 2.682 31.565 5.221 44.076 6.113a1.825 1.825 0 0 1-.128 3.647Z" class="svg-elem-2"></path><path xmlns="http://www.w3.org/2000/svg" d="M209.06 90.044a1.821 1.821 0 0 1-.38-.045c-19.28-4.127-30.193-9.628-41.73-15.43-10.46-5.262-21.277-10.72-39.29-15.374l-.045-.015c-.06-.014-.128-.027-.174-.044a1.823 1.823 0 0 1 1.125-3.468h.014c18.376 4.757 29.376 10.298 40.005 15.652 11.32 5.7 22.022 11.087 40.854 15.127a1.821 1.821 0 0 1-.38 3.605Zm3.194-44.092a1.821 1.821 0 0 1-.685-.128 139.726 139.726 0 0 0-19.062-5.994c-31.692-7.877-74.532-11.217-91.653-8.956a1.826 1.826 0 1 1-.481-3.62c17.442-2.305 60.94 1.063 93.008 9.027a143.258 143.258 0 0 1 19.558 6.153 1.821 1.821 0 0 1-.698 3.516Z" class="svg-elem-3"></path><path xmlns="http://www.w3.org/2000/svg" d="M192.944 39.885a1.808 1.808 0 0 1-1.107-.379c-.31-.235-31.403-23.788-55.163-30.991a1.821 1.821 0 1 1 1.05-3.485c24.403 7.392 55.03 30.6 56.327 31.59a1.821 1.821 0 0 1-1.107 3.267Zm-94.73 37.502a5.66 5.66 0 0 1-2.944-.805 1.821 1.821 0 0 1 1.861-3.132c1.767 1.063 4.393-1.135 4.42-1.17a1.825 1.825 0 0 1 2.407 2.743 9.35 9.35 0 0 1-5.743 2.364Zm-7.818 37.294a11.594 11.594 0 0 1-1.458-.074 1.827 1.827 0 0 1 .494-3.62 18.934 18.934 0 0 0 9.29-1.911 1.821 1.821 0 0 1 1.516 3.312 24.021 24.021 0 0 1-9.842 2.293Z" class="svg-elem-4"></path></g><path d="M18.98 260.037q-4.148-.834-7.667-3.085t-6.106-5.542-4.023-7.475-1.425-8.832q0-3.52.834-6.814t2.352-6.106 3.687-5.145 4.816-3.99 5.673-2.562 6.375-.897 6.41.897 5.71 2.562 4.816 3.99 3.687 5.145 2.393 6.106.834 6.814q0 4.749-1.5 8.96t-4.147 7.571-6.274 5.576-7.875 2.991q.998.438 1.993.931t1.993.931 1.993.733 2.023.33q.998 0 1.96-.262t1.73-.8 1.354-1.425.77-2.124l7.244 3.582q-.292 2.352-1.354 4.285t-2.73 3.291-3.754 2.09-4.48.733q-1.93 0-3.855-.733t-3.717-1.589-3.384-1.59-2.793-.732H20.81q-.403 0-.863.1t-1.096.293zm4.509-9.693q2.827 0 5.179-1.23t4.053-3.32 2.622-4.854.93-5.879q0-3.152-.93-5.938t-2.663-4.876-4.053-3.32-5.116-1.23-5.115 1.23-4.024 3.32-2.662 4.876-.961 5.938q0 3.123.96 5.879t2.663 4.853 4.024 3.321 5.115 1.23zm28.76-39.895H71.98v8.937h-4.52v20.39q0 2.794.624 4.75t1.765 3.19 2.693 1.794 3.414.565q1.93 0 3.481-.497t2.692-1.668 1.732-3.152.602-4.955v-20.39H79.25v-8.938h19.733v8.937h-3.92v19.13q0 5.18-1.499 9.233t-4.117 6.836-6.147 4.251-7.542 1.459q-3.99 0-7.475-1.425t-6.047-4.188-4.083-6.667-1.5-8.896v-19.733h-4.45v-8.937zM127.11 260.5q-3.354 0-6.375-.897t-5.673-2.562-4.816-3.99-3.687-5.145-2.352-6.084-.834-6.772.834-6.813 2.352-6.106 3.687-5.146 4.816-3.99 5.673-2.561 6.375-.897 6.41.897 5.71 2.561 4.816 3.99 3.687 5.146 2.393 6.106.834 6.813q0 3.482-.834 6.772t-2.393 6.107-3.687 5.145-4.817 3.99-5.71 2.561-6.409.898zm0-10.156q2.827 0 5.18-1.23t4.053-3.32 2.621-4.854.931-5.879q0-3.152-.931-5.938t-2.662-4.876-4.054-3.32-5.115-1.23-5.116 1.23-4.023 3.32-2.663 4.876-.96 5.938q0 3.123.96 5.879t2.663 4.853 4.023 3.321 5.116 1.23zm38.721.393h5.086v-31.684h-5.983v6.342H154.37v-14.942h44.738v14.942H188.48v-6.342h-6.772v31.684h5.179v8.896H165.83v-8.896zm37.962-40.288h39.125v16.775h-10.564v-6.982h-12.62v9.697h9.764v9.397h-9.764v11.397h12.62v-8.728h10.564v17.61h-39.125v-8.897h5.146v-30.487h-5.146v-9.793zm68.416 13.85q-.169-1.125-.8-2.123t-1.627-1.732-2.229-1.166-2.621-.438q-1.23 0-2.292.262t-1.863.8-1.26 1.395-.46 2.023q0 1.458.625 2.322t1.626 1.395 2.192.864 2.322.703l8.937 2.991q1.862.67 3.451 1.795t2.794 2.752 1.862 3.717.703 4.749q0 3.549-1.331 6.51t-3.687 5.052-5.673 3.29-7.337 1.167q-2.827 0-5.347-.624t-4.58-1.832-3.624-2.857-2.42-3.792h-3.354v-9.763h11.753v2.023q0 1.458.46 2.692t1.395 2.124 2.352 1.395 3.354.497q2.928 0 4.45-1.354t1.522-3.754q0-1.23-.535-2.06t-1.395-1.395-1.896-.961-2.06-.703l-7.437-2.393q-2.09-.67-4.084-1.833t-3.451-2.928-2.393-4.117-.898-5.377q0-3.481 1.29-6.244t3.624-4.611 5.541-2.857 7.045-.961q3.022 0 5.576.703t4.58 1.862 3.452 2.693 2.161 3.122h3.253v9.793h-11.752v-2.857zM30.782 291.748q2.124 0 3.127.703t1.001 2.264q0 1.147-.681 1.889t-2.024.986l3.074 4.982h-1.573l-2.935-4.86H29.12v4.86h-1.283V291.75h2.95zm-.14 4.77q1.513 0 2.201-.422t.689-1.367q0-.918-.62-1.352t-1.918-.437h-1.88v3.577h1.53zm19.565-4.77 4.601 10.823H53.31l-1.1-2.66H46.8l-1.117 2.66H44.23l4.768-10.823h1.208zm-.657 1.65-2.247 5.32h4.417l-2.141-5.32h-.03zm16.637-1.65 6.268 8.989h.031v-8.989h1.283v10.823h-1.62l-6.269-8.988h-.03v8.988h-1.284v-10.823h1.621zm22.425 0q2.37 0 3.883 1.492t1.542 3.92q0 2.415-1.52 3.899t-3.874 1.512h-4.067v-10.823h4.036zm-.306 9.63q2.033 0 3.188-1.08t1.17-3.14q0-1.987-1.132-3.089t-3.224-1.131h-2.446v8.438h2.446zm21.148-9.906q2.445 0 4.036 1.607t1.621 4.081q-.015 2.522-1.636 4.097t-4.019 1.59q-2.445 0-4.035-1.611t-1.622-4.075q0-2.445 1.59-4.052t4.067-1.636zm-4.28 5.686q0 1.941 1.222 3.203t3.056 1.29q1.833 0 3.04-1.284t1.238-3.21q0-1.88-1.192-3.17t-3.103-1.324q-1.866.015-3.049 1.306t-1.215 3.187zm22.224-5.41 3.669 8.484h.03l3.7-8.484h1.866v10.823h-1.283v-9.08h-.031l-3.883 9.08h-.779l-3.882-9.08h-.031v9.08h-1.283v-10.823h1.91zm37.777-.276q1.59 0 2.844.726t1.98 1.994.742 2.83q0 1.437-.742 2.682t-1.889 1.736v.03h3.348v1.1h-6.313q-2.323 0-3.905-1.59t-1.63-3.958q0-1.559.735-2.83t2.024-1.994 2.804-.726zm-4.19 5.549q0 1.833 1.209 3.079t2.98 1.275q1.788 0 2.973-1.261t1.215-3.097q0-1.85-1.2-3.096t-3.002-1.261q-1.757 0-2.943 1.237t-1.23 3.12zm21.554-5.273v6.513q0 1.651.703 2.508t2.095.887q1.392-.015 2.087-.878t.71-2.453v-6.573h1.283v6.742q0 2.062-1.069 3.203t-3.01 1.156q-1.912 0-2.988-1.156t-1.093-3.218v-6.724h1.283zm22.874-.276q2.446 0 4.036 1.607t1.621 4.081q-.014 2.522-1.635 4.097t-4.02 1.59q-2.445 0-4.035-1.611t-1.621-4.075q0-2.445 1.59-4.052t4.067-1.636zm-4.28 5.686q0 1.941 1.223 3.203t3.056 1.29q1.832 0 3.04-1.284t1.237-3.21q0-1.88-1.192-3.17t-3.103-1.324q-1.865.015-3.049 1.306t-1.215 3.187zm27.574-5.41v1.192h-3.577v9.629h-1.283v-9.629h-3.578v-1.192h8.439zm16.63 0v1.192h-5.519v3.393h5.15v1.192h-5.15v3.853h5.793v1.192h-7.078v-10.823h6.803zm13.75-.276q1.972 0 3.026 1.269l-1.054.918q-.613-.964-1.972-.993-1.024 0-1.667.489t-.643 1.328q0 .734.49 1.163t1.832.839q1.743.504 2.469 1.23t.725 1.965q0 1.437-1.068 2.292t-2.736.872q-1.117 0-1.987-.398t-1.344-1.1l1.1-.902q.35.58.978.895t1.329.312q.964 0 1.659-.542t.695-1.337q0-.719-.406-1.132t-1.337-.703l-1.238-.413q-1.391-.474-1.964-1.184t-.573-1.75q0-1.377 1.025-2.24t2.66-.877z" fill="inherit" class="svg-elem-5"></path></svg>