<?xml version="1.0" standalone="no"?><svg xmlns="http://www.w3.org/2000/svg" viewBox="0 0 1440 320"><path fill="#0099ff" fill-opacity="1" d="M0,64L20,96C40,128,80,192,120,213.3C160,235,200,213,240,202.7C280,192,320,192,360,181.3C400,171,440,149,480,149.3C520,149,560,171,600,176C640,181,680,171,720,165.3C760,160,800,160,840,160C880,160,920,160,960,149.3C1000,139,1040,117,1080,133.3C1120,149,1160,203,1200,192C1240,181,1280,107,1320,69.3C1360,32,1400,32,1420,32L1440,32L1440,320L1420,320C1400,320,1360,320,1320,320C1280,320,1240,320,1200,320C1160,320,1120,320,1080,320C1040,320,1000,320,960,320C920,320,880,320,840,320C800,320,760,320,720,320C680,320,640,320,600,320C560,320,520,320,480,320C440,320,400,320,360,320C320,320,280,320,240,320C200,320,160,320,120,320C80,320,40,320,20,320L0,320Z"></path></svg>